<?xml version="1.0" encoding="utf-8"?>
<!-- Generator: Adobe Illustrator 16.0.0, SVG Export Plug-In . SVG Version: 6.00 Build 0)  -->
<!DOCTYPE svg PUBLIC "-//W3C//DTD SVG 1.1//EN" "http://www.w3.org/Graphics/SVG/1.1/DTD/svg11.dtd">
<svg version="1.1" id="Layer_1" xmlns="http://www.w3.org/2000/svg" xmlns:xlink="http://www.w3.org/1999/xlink" x="0px" y="0px"
	 width="175px" height="59.779px" viewBox="0 0 175 59.779" enable-background="new 0 0 175 59.779" xml:space="preserve">
<g>
	<path fill="#58B947" d="M48.505,27.096c0.445,0.247,0.905,0.379,1.383,0.395c0.477,0.017,0.864-0.106,1.16-0.37l3.357-4.542
		c0.197-0.396,0.189-0.815-0.024-1.259c-0.215-0.445-0.544-0.839-0.987-1.186c-0.444-0.345-0.947-0.617-1.506-0.814
		c-0.561-0.197-1.086-0.279-1.58-0.247c-0.297,0.033-0.543,0.099-0.74,0.198c-0.197,0.099-0.396,0.247-0.593,0.444
		c-0.165,0.23-0.329,0.543-0.493,0.938c-0.166,0.395-0.321,0.814-0.47,1.259c-0.147,0.444-0.28,0.889-0.396,1.333
		c-0.115,0.444-0.221,0.832-0.32,1.16c-0.165,0.626-0.115,1.169,0.148,1.629C47.707,26.496,48.062,26.849,48.505,27.096z"/>
	<path fill="#58B947" d="M96.344,27.096c0.444,0.247,0.904,0.379,1.383,0.395c0.476,0.017,0.864-0.106,1.159-0.37l3.357-4.542
		c0.197-0.396,0.188-0.815-0.024-1.259c-0.215-0.445-0.542-0.839-0.988-1.186c-0.444-0.345-0.946-0.617-1.505-0.814
		c-0.561-0.197-1.086-0.279-1.579-0.247c-0.298,0.033-0.544,0.099-0.741,0.198c-0.197,0.099-0.396,0.247-0.593,0.444
		c-0.165,0.23-0.329,0.543-0.493,0.938c-0.166,0.395-0.322,0.814-0.469,1.259c-0.148,0.444-0.281,0.889-0.395,1.333
		c-0.118,0.444-0.223,0.832-0.322,1.16c-0.165,0.626-0.115,1.169,0.148,1.629C95.545,26.496,95.899,26.849,96.344,27.096z"/>
	<path fill="#58B947" d="M174.676,4.391c-0.42-0.866-1.06-1.635-1.925-2.309c-0.865-0.673-1.845-1.203-2.935-1.588
		c-1.093-0.384-2.116-0.544-3.078-0.48c-0.577,0.064-1.061,0.192-1.444,0.384c-0.385,0.193-0.769,0.481-1.154,0.866
		c-0.321,0.45-0.642,1.059-0.962,1.828c-0.321,0.77-0.626,1.587-0.914,2.454c-0.288,0.866-0.546,1.731-0.77,2.597
		c-0.225,0.867-0.434,1.621-0.626,2.261c-0.321,1.22-0.226,2.278,0.289,3.175c0.512,0.9,1.203,1.588,2.068,2.068
		c0.865,0.482,1.765,0.739,2.694,0.771c0.929,0.033,1.684-0.207,2.26-0.721l6.543-8.852C175.107,6.075,175.092,5.257,174.676,4.391z
		"/>
	<path fill="#58B947" d="M170.249,43.789c-0.418-0.127-0.816-0.176-1.203-0.144c-0.385,0.033-0.61,0.24-0.674,0.625
		c-0.641,2.245-1.523,4.104-2.646,5.58c-1.122,1.477-2.246,2.519-3.366,3.127c-1.123,0.61-2.134,0.786-3.03,0.528
		c-0.9-0.254-1.412-0.992-1.54-2.212c-0.192-1.731-0.017-3.719,0.529-5.965c0.544-2.245,1.282-4.506,2.212-6.783
		c0.931-2.276,1.893-4.409,2.887-6.397c0.994-1.988,1.812-3.623,2.453-4.907c0.578-1.025,0.737-2.004,0.482-2.935
		c-0.258-0.928-0.74-1.747-1.444-2.453c-0.706-0.704-1.556-1.282-2.549-1.731c-0.995-0.448-1.973-0.673-2.934-0.673
		c-1.541,0-2.694,0.545-3.465,1.635c-0.706,1.091-1.508,2.758-2.405,5.003c-0.896,2.246-1.732,4.73-2.502,7.456
		c-0.313,1.11-0.591,2.234-0.86,3.359c-0.116,0.215-0.222,0.418-0.341,0.633c-1.382,2.502-2.808,4.924-4.281,7.265
		c-1.479,2.343-2.855,4.219-4.137,5.629c-0.193,0.192-0.45,0.466-0.771,0.817c-0.321,0.354-0.657,0.641-1.009,0.866
		c-0.354,0.226-0.675,0.321-0.963,0.288c-0.289-0.031-0.497-0.305-0.625-0.818c-0.129-0.961,0-2.34,0.385-4.137
		c0.385-1.795,0.978-3.848,1.78-6.157c0.8-2.31,1.73-4.794,2.79-7.456c1.059-2.662,2.196-5.34,3.414-8.034
		c0.386-0.77,0.16-1.554-0.672-2.357c-0.835-0.802-1.846-1.458-3.032-1.972c-1.188-0.513-2.404-0.785-3.656-0.818
		c-1.25-0.031-2.102,0.37-2.549,1.203c-0.322,0.514-0.527,0.866-0.626,1.059c-0.096,0.192-0.239,0.514-0.433,0.961
		c-0.576-1.475-1.475-2.549-2.693-3.223c-1.219-0.673-2.598-1.01-4.138-1.01c-1.026,0-2.085,0.177-3.175,0.529
		c-1.09,0.353-2.15,0.914-3.175,1.683c-1.218,0.963-2.406,2.453-3.56,4.475c-1.154,2.021-2.196,4.281-3.128,6.783
		c-0.929,2.501-1.682,5.1-2.261,7.793c-0.182,0.848-0.323,1.669-0.447,2.479c-0.112,0.133-0.228,0.267-0.355,0.4
		c-0.576,0.609-1.227,1.16-1.951,1.654c-0.724,0.493-1.489,0.888-2.295,1.184c-0.807,0.297-1.539,0.429-2.196,0.396
		c-0.659-0.032-1.21-0.271-1.654-0.716c-0.443-0.444-0.701-1.16-0.766-2.147c-0.066-0.823,0.016-1.769,0.246-2.839
		c0.231-1.069,0.544-2.114,0.939-3.135c0.395-1.02,0.846-1.941,1.356-2.766c0.511-0.822,1.028-1.414,1.556-1.776
		c0.494-0.329,0.815-0.428,0.962-0.296c0.148,0.131,0.215,0.387,0.197,0.766c-0.015,0.377-0.098,0.822-0.246,1.332
		s-0.288,0.98-0.419,1.406c-0.198,0.659,0.313,1.07,1.529,1.235c0.56,0.066,1.168,0.009,1.827-0.173
		c0.659-0.181,1.119-0.699,1.383-1.555c0.262-0.955,0.362-1.852,0.296-2.691s-0.264-1.58-0.593-2.222s-0.773-1.176-1.332-1.604
		c-0.561-0.427-1.201-0.724-1.926-0.889c-1.48-0.296-2.848-0.065-4.098,0.692c-1.252,0.757-2.329,1.811-3.233,3.159
		c-0.905,1.351-1.614,2.88-2.124,4.592c-0.348,1.169-0.568,2.314-0.679,3.438c-0.628,1.012-1.243,1.918-1.839,2.708
		c-0.608,0.808-1.192,1.448-1.752,1.925c-0.56,0.479-1.037,0.717-1.432,0.717c-0.197-0.033-0.347-0.131-0.444-0.297
		c-0.1-0.164-0.229-0.354-0.277-0.568c-0.049-0.213-0.129-0.427-0.129-0.641s0-0.403,0-0.568c0-0.889,0.358-1.858,0.672-2.912
		c0.313-1.053,0.71-2.082,1.139-3.086c0.427-1.004,0.877-1.941,1.322-2.814c0.443-0.871,0.821-1.604,1.116-2.197
		c0.396-0.723,0.399-1.373,0.003-1.949c-0.393-0.576-0.936-1.012-1.625-1.309c-0.693-0.296-1.416-0.403-2.173-0.321
		c-0.757,0.083-1.282,0.404-1.577,0.963c-0.396,0.69-0.8,1.613-1.211,2.765c-0.411,1.152-0.797,2.379-1.161,3.679
		c-0.04,0.145-0.071,0.291-0.109,0.437c-0.442,0.758-0.888,1.517-1.371,2.303c-0.624,1.021-1.251,1.968-1.876,2.839
		c-0.625,0.872-1.217,1.622-1.775,2.247c-0.561,0.625-1.055,1.036-1.482,1.234c-0.23,0.131-0.379-0.017-0.443-0.445
		c-0.066-0.69,0.098-1.785,0.492-3.283c0.396-1.496,0.906-3.191,1.532-5.085c0.624-1.892,1.332-3.876,2.122-5.948
		c0.789-2.074,1.563-4.024,2.32-5.851s1.457-3.439,2.099-4.838c0.642-1.398,1.125-2.361,1.457-2.888
		c0.295-0.461,0.345-0.896,0.147-1.309c-0.197-0.411-0.527-0.765-0.987-1.062c-0.462-0.296-0.996-0.526-1.605-0.691
		c-0.608-0.165-1.159-0.247-1.654-0.247c-0.23,0-0.468,0.049-0.714,0.148c-0.248,0.099-0.453,0.264-0.617,0.494
		c-0.231,0.329-0.568,1.012-1.014,2.048c-0.443,1.037-0.938,2.296-1.48,3.777c-0.543,1.481-1.118,3.135-1.728,4.961
		c-0.61,1.827-1.178,3.679-1.702,5.554c-0.33-0.756-0.809-1.308-1.433-1.653c-0.625-0.346-1.333-0.519-2.124-0.519
		c-0.525,0-1.061,0.091-1.604,0.271c-0.543,0.182-1.078,0.469-1.604,0.864c-0.626,0.493-1.243,1.259-1.852,2.296
		c-0.609,1.037-1.151,2.197-1.63,3.48c-0.477,1.283-0.863,2.616-1.16,3.999c-0.08,0.375-0.146,0.742-0.206,1.103
		c-0.317,0.486-0.628,0.949-0.929,1.365c-0.857,1.186-1.605,2.074-2.247,2.666c-0.642,0.593-1.095,0.889-1.356,0.889
		c-0.166,0-0.273-0.073-0.322-0.222c-0.049-0.147-0.073-0.271-0.073-0.37c0-0.593,0.132-1.398,0.396-2.42
		c0.262-1.02,0.559-2.072,0.888-3.158c0.329-1.088,0.657-2.131,0.987-3.136c0.33-1.003,0.559-1.802,0.691-2.394
		c0.23-0.988,0.246-1.853,0.049-2.593c-0.197-0.741-0.518-1.316-0.963-1.728c-0.443-0.412-0.979-0.649-1.604-0.716
		c-0.626-0.065-1.252,0.1-1.876,0.494c-0.494,0.33-0.979,0.725-1.456,1.185c-0.478,0.462-0.939,0.938-1.383,1.433
		c-0.445,0.493-0.856,0.979-1.234,1.456c-0.379,0.478-0.684,0.897-0.913,1.259c0.229-0.625,0.509-1.284,0.839-1.975
		c0.328-0.691,0.625-1.383,0.889-2.074c0.23-0.493,0.124-0.905-0.32-1.234c-0.445-0.329-0.988-0.559-1.63-0.691
		c-0.642-0.131-1.276-0.148-1.9-0.049c-0.626,0.099-1.005,0.33-1.136,0.691c-0.494,1.449-0.987,2.986-1.48,4.615
		c-0.46,1.518-0.873,2.994-1.246,4.439c-0.351,0.629-0.713,1.258-1.099,1.881c-0.642,1.037-1.269,1.959-1.876,2.765
		c-0.609,0.808-1.193,1.448-1.754,1.925c-0.559,0.479-1.036,0.717-1.431,0.717c-0.198-0.033-0.346-0.131-0.444-0.297
		c-0.1-0.164-0.309-0.354-0.358-0.568c-0.049-0.213-0.21-0.427-0.21-0.641s0-0.403,0-0.568c0-0.889,0.44-1.858,0.753-2.912
		c0.313-1.053,0.751-2.082,1.179-3.086s0.897-1.941,1.343-2.814c0.443-0.871,0.832-1.604,1.128-2.197
		c0.396-0.723,0.403-1.373,0.008-1.949c-0.396-0.576-0.934-1.012-1.624-1.309c-0.691-0.296-1.414-0.403-2.171-0.321
		c-0.758,0.083-1.282,0.404-1.579,0.963c-0.395,0.69-0.798,1.613-1.209,2.765c-0.411,1.152-0.797,2.379-1.159,3.679
		c-0.164,0.589-0.311,1.184-0.447,1.779c-0.924,1.437-1.852,2.726-2.786,3.849c-1.136,1.366-2.246,2.443-3.333,3.233
		c-1.086,0.79-2.057,1.186-2.912,1.186c-0.494,0-0.932-0.106-1.309-0.321c-0.379-0.213-0.691-0.494-0.938-0.839
		c-0.246-0.347-0.428-0.741-0.542-1.186c-0.117-0.444-0.141-0.88-0.074-1.308c0.92,0,1.932-0.141,3.035-0.42
		s2.148-0.766,3.136-1.457s1.818-1.611,2.493-2.765c0.674-1.151,1.045-2.6,1.111-4.345c0-0.92-0.157-1.719-0.469-2.395
		c-0.314-0.674-0.701-1.226-1.161-1.653c-0.461-0.428-0.995-0.749-1.604-0.963c-0.609-0.213-1.209-0.321-1.802-0.321
		c-1.481,0-2.79,0.437-3.925,1.308c-1.136,0.873-2.099,1.959-2.889,3.259c-0.789,1.301-1.391,2.732-1.802,4.295
		c-0.411,1.563-0.618,3.036-0.618,4.419c0,0.152,0.01,0.299,0.017,0.447c-0.799,1.077-1.497,1.904-2.089,2.465
		c-0.625,0.593-1.07,0.889-1.333,0.889c-0.197,0-0.321-0.073-0.37-0.222c-0.049-0.147-0.074-0.271-0.074-0.37
		c0-0.757,0.164-1.744,0.494-2.963c0.328-1.217,0.723-2.518,1.185-3.9c0.099-0.295,0.181-0.551,0.247-0.765s0.139-0.419,0.223-0.617
		c0.081-0.197,0.164-0.402,0.246-0.616c0.082-0.215,0.173-0.486,0.271-0.815c0.494-1.415,0.674-2.6,0.543-3.554
		c-0.132-0.955-0.437-1.679-0.913-2.173c-0.478-0.493-1.062-0.765-1.753-0.814c-0.691-0.05-1.35,0.123-1.975,0.518
		c-0.56,0.363-1.119,0.815-1.678,1.358c-0.561,0.543-1.07,1.094-1.531,1.653c0.032-0.657-0.074-1.259-0.321-1.802
		s-0.575-0.963-0.987-1.259c-0.411-0.296-0.896-0.461-1.456-0.494c-0.56-0.032-1.12,0.116-1.679,0.445
		c-0.494,0.329-0.971,0.732-1.432,1.209c-0.461,0.478-0.906,0.962-1.333,1.456c-0.429,0.494-0.823,0.988-1.185,1.481
		c-0.363,0.493-0.659,0.938-0.889,1.333c0.229-0.658,0.501-1.333,0.814-2.024c0.313-0.69,0.6-1.383,0.863-2.073
		c0.23-0.494,0.123-0.913-0.32-1.259c-0.445-0.346-0.996-0.584-1.654-0.716c-0.658-0.131-1.316-0.131-1.975,0
		c-0.658,0.132-1.054,0.428-1.186,0.889c-0.492,1.449-0.986,2.979-1.48,4.592c-0.494,1.612-0.93,3.184-1.309,4.714
		c-0.377,1.53-0.682,2.962-0.913,4.296C0.116,44.918,0,46.047,0,46.968c0,0.263,0.033,0.542,0.099,0.839
		c0.066,0.297,0.174,0.576,0.322,0.84c0.146,0.264,0.328,0.493,0.542,0.69c0.215,0.198,0.47,0.313,0.765,0.346
		c0.822,0.132,1.457-0.05,1.901-0.543s0.748-1.053,0.913-1.679c0.131-0.625,0.329-1.35,0.592-2.172
		c0.264-0.822,0.552-1.67,0.865-2.543c0.313-0.872,0.649-1.719,1.012-2.543c0.361-0.822,0.691-1.563,0.987-2.221
		c0.526-1.053,1.037-1.761,1.53-2.123c0.494-0.361,0.822-0.461,0.988-0.297c0.262,0.166,0.304,0.626,0.123,1.383
		c-0.182,0.758-0.404,1.58-0.667,2.469c-0.362,1.251-0.699,2.485-1.012,3.703c-0.313,1.217-0.552,2.32-0.716,3.307
		c-0.133,1.021,0.074,1.795,0.617,2.32c0.543,0.527,1.168,0.84,1.876,0.938s1.35,0.009,1.925-0.271
		c0.576-0.279,0.848-0.698,0.815-1.259c-0.033-0.494,0.017-1.185,0.147-2.074c0.132-0.889,0.305-1.826,0.519-2.813
		s0.469-1.95,0.765-2.889c0.297-0.938,0.594-1.735,0.89-2.394c0.329-0.658,0.666-1.21,1.013-1.654
		c0.345-0.444,0.641-0.699,0.889-0.766c0.246-0.064,0.41,0.066,0.492,0.396s0.025,0.938-0.172,1.827
		c-0.264,1.25-0.552,2.518-0.864,3.801c-0.313,1.283-0.469,2.453-0.469,3.506c0,0.69,0.073,1.332,0.222,1.925
		s0.387,1.103,0.716,1.53c0.329,0.429,0.766,0.74,1.31,0.938c0.543,0.197,1.225,0.263,2.048,0.197
		c0.855-0.131,1.72-0.592,2.593-1.383c0.799-0.724,1.569-1.608,2.314-2.638c0.283,0.733,0.633,1.403,1.091,1.972
		c0.543,0.675,1.177,1.202,1.901,1.58c0.723,0.378,1.529,0.567,2.419,0.567c1.118-0.033,2.229-0.378,3.332-1.037
		c1.103-0.657,2.173-1.506,3.209-2.542c1.037-1.037,2.016-2.188,2.938-3.456c0.081-0.111,0.153-0.224,0.234-0.336
		c-0.082,0.734-0.137,1.441-0.137,2.088c0,0.758,0.074,1.454,0.223,2.09c0.147,0.636,0.395,1.188,0.74,1.659
		c0.346,0.47,0.799,0.837,1.357,1.096c0.56,0.26,1.25,0.39,2.074,0.39c0.986,0,1.957-0.365,2.912-1.096
		c0.954-0.73,1.852-1.66,2.691-2.789c0.154-0.209,0.297-0.443,0.449-0.661c-0.084,0.682-0.13,1.298-0.13,1.83
		c0,0.493,0.141,1.046,0.419,1.654c0.281,0.609,0.717,0.946,1.309,1.012c0.824,0.132,1.449-0.05,1.877-0.543
		c0.427-0.493,0.707-1.036,0.84-1.63c0.131-0.624,0.336-1.348,0.616-2.172c0.279-0.822,0.575-1.67,0.89-2.543
		c0.312-0.871,0.648-1.728,1.012-2.566c0.361-0.84,0.69-1.588,0.986-2.246c0.297-0.658,0.634-1.201,1.014-1.629
		c0.377-0.428,0.715-0.684,1.011-0.766c0.297-0.082,0.502,0.049,0.617,0.395s0.074,0.963-0.124,1.852
		c-0.263,1.252-0.551,2.51-0.863,3.777c-0.313,1.267-0.469,2.428-0.469,3.48c0,0.69,0.074,1.332,0.222,1.925
		c0.148,0.593,0.386,1.103,0.717,1.53c0.329,0.429,0.765,0.74,1.308,0.938c0.544,0.197,1.21,0.263,2,0.197
		c0.855-0.131,1.711-0.592,2.566-1.383c0.855-0.79,1.695-1.76,2.519-2.913c0.046-0.063,0.088-0.135,0.134-0.199
		c0.172,1.313,0.617,2.346,1.347,3.088c0.956,0.972,2.141,1.457,3.556,1.457c0.525-0.033,1.012-0.156,1.457-0.371
		c0.443-0.213,0.846-0.477,1.208-0.789s0.692-0.658,0.988-1.037c0.296-0.378,0.542-0.748,0.74-1.111
		c0.229,0.988,0.667,1.777,1.309,2.37s1.374,0.889,2.196,0.889c0.789,0,1.605-0.378,2.443-1.136c0.84-0.756,1.662-1.719,2.469-2.888
		c0.424-0.612,0.838-1.259,1.247-1.93c-0.011,0.255-0.038,0.526-0.038,0.769c0,0.758,0.074,1.454,0.222,2.09
		c0.148,0.636,0.396,1.188,0.741,1.659c0.347,0.47,0.799,0.837,1.357,1.096c0.559,0.26,1.251,0.39,2.073,0.39
		c0.988,0,1.958-0.365,2.913-1.096c0.954-0.73,1.851-1.66,2.689-2.789c0.272-0.363,0.525-0.762,0.784-1.152
		c0.03,0.139,0.045,0.283,0.08,0.42c0.23,0.873,0.593,1.646,1.088,2.32c0.493,0.676,1.11,1.227,1.85,1.655
		c0.741,0.428,1.639,0.642,2.691,0.642c1.185,0,2.304-0.214,3.356-0.642c1.054-0.429,2.016-0.979,2.888-1.655
		c0.387-0.298,0.745-0.619,1.094-0.949c-0.043,0.653-0.068,1.296-0.068,1.921c0,3.785,0.931,6.624,2.791,8.515
		c1.859,1.893,4.168,2.838,6.927,2.838c1.024-0.063,1.972-0.303,2.838-0.721c0.866-0.417,1.65-0.93,2.357-1.539
		c0.705-0.609,1.347-1.282,1.924-2.021c0.577-0.737,1.058-1.459,1.444-2.165c0.385,1.924,1.201,3.463,2.453,4.618
		c1.25,1.155,2.708,1.731,4.376,1.731c1.54,0,3.095-0.736,4.666-2.213c1.572-1.475,3.11-3.351,4.62-5.629
		c0.507-0.766,1.002-1.564,1.491-2.377c0,0.006-0.002,0.014-0.002,0.021c0,2.951,0.756,5.373,2.263,7.264
		c1.507,1.893,3.606,2.903,6.301,3.03c2.311,0.129,4.346-0.384,6.109-1.539c1.764-1.154,3.256-2.532,4.475-4.137
		c1.216-1.602,2.164-3.223,2.837-4.858s1.107-2.901,1.3-3.8c0.063-0.387-0.047-0.723-0.337-1.012
		C171.018,44.127,170.665,43.919,170.249,43.789z M34.114,33.588c0.1-0.033,0.205-0.057,0.32-0.074
		c0.115-0.016,0.23,0.018,0.347,0.1c0.114,0.082,0.214,0.214,0.296,0.395s0.106,0.469,0.074,0.863
		c-0.066,0.758-0.264,1.506-0.592,2.246c-0.33,0.741-0.734,1.4-1.211,1.975c-0.477,0.578-1.004,1.063-1.58,1.457
		c-0.575,0.395-1.143,0.626-1.703,0.691c0.165-0.855,0.412-1.703,0.742-2.543c0.328-0.839,0.69-1.611,1.085-2.32
		c0.396-0.707,0.79-1.308,1.185-1.801C33.473,34.082,33.818,33.753,34.114,33.588z M79.731,36.697
		c-0.132,0.791-0.32,1.639-0.567,2.543c-0.246,0.906-0.534,1.82-0.864,2.74c-0.33,0.922-0.683,1.762-1.062,2.518
		c-0.378,0.758-0.782,1.375-1.209,1.852c-0.429,0.479-0.856,0.717-1.283,0.717c-0.331,0-0.544-0.189-0.643-0.568
		c-0.099-0.378-0.141-0.822-0.123-1.333c0.016-0.51,0.073-1.028,0.173-1.556c0.098-0.525,0.18-0.938,0.246-1.233
		c0.23-0.987,0.543-2.04,0.938-3.159s0.815-2.14,1.259-3.062c0.445-0.921,0.904-1.687,1.383-2.296
		c0.477-0.608,0.912-0.913,1.309-0.913c0.131,0,0.238,0.083,0.32,0.247s0.148,0.346,0.197,0.543s0.082,0.403,0.1,0.617
		c0.016,0.215,0.024,0.369,0.024,0.469C79.93,35.283,79.863,35.908,79.731,36.697z M132.198,34.36
		c-0.257,1.54-0.626,3.192-1.107,4.956c-0.48,1.764-1.043,3.544-1.683,5.338c-0.643,1.797-1.332,3.434-2.068,4.908
		c-0.738,1.477-1.525,2.678-2.357,3.607c-0.834,0.931-1.67,1.396-2.502,1.396c-0.642,0-1.058-0.368-1.25-1.106
		c-0.192-0.736-0.274-1.604-0.241-2.598c0.031-0.994,0.146-2.004,0.337-3.031c0.192-1.025,0.352-1.828,0.481-2.404
		c0.447-1.924,1.058-3.978,1.827-6.158c0.771-2.18,1.587-4.168,2.455-5.965c0.864-1.796,1.762-3.286,2.692-4.474
		c0.93-1.187,1.779-1.78,2.55-1.78c0.256,0,0.465,0.161,0.625,0.481c0.159,0.321,0.288,0.673,0.385,1.059
		c0.096,0.385,0.161,0.786,0.193,1.203c0.032,0.418,0.048,0.721,0.048,0.914C132.583,31.604,132.454,32.82,132.198,34.36z"/>
</g>
</svg>
