<?xml version="1.0" encoding="utf-8"?>
<!-- Generator: Adobe Illustrator 16.0.0, SVG Export Plug-In . SVG Version: 6.00 Build 0)  -->
<!DOCTYPE svg PUBLIC "-//W3C//DTD SVG 1.1//EN" "http://www.w3.org/Graphics/SVG/1.1/DTD/svg11.dtd">
<svg version="1.1" id="Layer_1" xmlns="http://www.w3.org/2000/svg" xmlns:xlink="http://www.w3.org/1999/xlink" x="0px" y="0px"
	 width="203.297px" height="69.445px" viewBox="0 0 203.297 69.445" enable-background="new 0 0 203.297 69.445"
	 xml:space="preserve">
<g>
	<path d="M56.349,31.477c0.517,0.287,1.051,0.44,1.606,0.458c0.553,0.02,1.003-0.123,1.348-0.43l3.9-5.276
		c0.229-0.459,0.22-0.947-0.029-1.462c-0.249-0.517-0.631-0.975-1.147-1.377c-0.516-0.401-1.1-0.717-1.75-0.946
		c-0.65-0.229-1.262-0.325-1.835-0.287c-0.344,0.039-0.631,0.115-0.86,0.229c-0.229,0.115-0.459,0.287-0.688,0.517
		c-0.192,0.268-0.382,0.631-0.573,1.09c-0.192,0.458-0.373,0.946-0.545,1.462s-0.325,1.032-0.459,1.548
		c-0.134,0.516-0.258,0.966-0.373,1.348c-0.192,0.727-0.135,1.358,0.172,1.893C55.421,30.78,55.833,31.19,56.349,31.477z"/>
	<path d="M111.922,31.477c0.517,0.287,1.051,0.44,1.606,0.458c0.553,0.02,1.004-0.123,1.347-0.43l3.9-5.276
		c0.229-0.459,0.219-0.947-0.028-1.462c-0.25-0.517-0.63-0.975-1.148-1.377c-0.516-0.401-1.099-0.717-1.748-0.946
		c-0.65-0.229-1.262-0.325-1.834-0.287c-0.346,0.039-0.632,0.115-0.861,0.229s-0.459,0.287-0.688,0.517
		c-0.191,0.268-0.382,0.631-0.573,1.09c-0.192,0.458-0.374,0.946-0.544,1.462c-0.173,0.516-0.327,1.032-0.459,1.548
		c-0.137,0.516-0.258,0.966-0.374,1.348c-0.191,0.727-0.134,1.358,0.173,1.893C110.994,30.78,111.406,31.19,111.922,31.477z"/>
	<path d="M202.92,5.101c-0.487-1.006-1.23-1.9-2.236-2.683c-1.005-0.782-2.143-1.397-3.408-1.844
		c-1.27-0.447-2.459-0.632-3.576-0.559c-0.671,0.075-1.231,0.224-1.678,0.447c-0.447,0.224-0.894,0.559-1.341,1.006
		c-0.374,0.523-0.745,1.23-1.117,2.124c-0.374,0.895-0.728,1.844-1.063,2.851c-0.335,1.006-0.634,2.012-0.894,3.018
		c-0.262,1.006-0.504,1.883-0.728,2.626c-0.373,1.417-0.262,2.647,0.336,3.688c0.595,1.045,1.397,1.844,2.402,2.403
		c1.006,0.56,2.05,0.858,3.13,0.895c1.079,0.039,1.956-0.241,2.626-0.838l7.601-10.283C203.422,7.057,203.403,6.107,202.92,5.101z"
		/>
	<path d="M197.777,50.87c-0.485-0.148-0.948-0.204-1.397-0.168c-0.447,0.039-0.709,0.279-0.782,0.727
		c-0.745,2.609-1.771,4.77-3.073,6.482c-1.304,1.715-2.609,2.926-3.911,3.633c-1.305,0.709-2.479,0.912-3.521,0.614
		c-1.046-0.296-1.641-1.153-1.789-2.57c-0.224-2.012-0.019-4.32,0.615-6.929c0.632-2.608,1.489-5.234,2.569-7.881
		c1.081-2.645,2.198-5.122,3.354-7.432c1.155-2.309,2.104-4.209,2.85-5.701c0.672-1.191,0.857-2.328,0.561-3.41
		c-0.299-1.078-0.859-2.029-1.678-2.85c-0.82-0.818-1.808-1.49-2.961-2.012c-1.156-0.52-2.291-0.782-3.408-0.782
		c-1.79,0-3.13,0.633-4.024,1.9c-0.82,1.268-1.752,3.204-2.794,5.812c-1.042,2.609-2.014,5.495-2.907,8.662
		c-0.363,1.29-0.687,2.595-0.999,3.903c-0.136,0.248-0.258,0.484-0.396,0.734c-1.604,2.907-3.262,5.721-4.974,8.439
		c-1.717,2.721-3.317,4.9-4.806,6.539c-0.224,0.223-0.522,0.541-0.896,0.949c-0.374,0.41-0.764,0.745-1.172,1.006
		c-0.411,0.262-0.784,0.374-1.119,0.336c-0.336-0.037-0.577-0.354-0.726-0.951c-0.15-1.117,0-2.719,0.447-4.806
		c0.446-2.085,1.135-4.47,2.067-7.153c0.93-2.682,2.011-5.569,3.241-8.662c1.229-3.092,2.552-6.203,3.967-9.333
		c0.447-0.894,0.186-1.806-0.781-2.738c-0.97-0.931-2.144-1.694-3.522-2.291c-1.379-0.596-2.793-0.912-4.247-0.951
		c-1.452-0.036-2.441,0.43-2.961,1.397c-0.374,0.597-0.613,1.006-0.728,1.23c-0.111,0.224-0.278,0.597-0.502,1.117
		c-0.67-1.713-1.714-2.961-3.13-3.745c-1.415-0.782-3.018-1.173-4.806-1.173c-1.192,0-2.423,0.206-3.688,0.615
		c-1.267,0.41-2.498,1.062-3.688,1.956c-1.415,1.118-2.795,2.85-4.135,5.198c-1.341,2.347-2.552,4.973-3.634,7.879
		c-1.079,2.906-1.954,5.924-2.626,9.053c-0.212,0.985-0.376,1.939-0.521,2.881c-0.13,0.154-0.264,0.31-0.412,0.465
		c-0.67,0.708-1.426,1.348-2.267,1.922c-0.841,0.573-1.73,1.031-2.667,1.376s-1.787,0.497-2.551,0.459
		c-0.766-0.038-1.406-0.315-1.922-0.831c-0.516-0.518-0.814-1.348-0.89-2.495c-0.077-0.956,0.019-2.056,0.286-3.298
		c0.269-1.242,0.632-2.457,1.091-3.643c0.459-1.184,0.983-2.256,1.576-3.211c0.594-0.956,1.194-1.645,1.808-2.064
		c0.573-0.383,0.947-0.497,1.117-0.345c0.173,0.153,0.25,0.45,0.229,0.89c-0.018,0.439-0.113,0.955-0.286,1.547
		c-0.173,0.594-0.335,1.139-0.487,1.635c-0.229,0.766,0.363,1.244,1.777,1.435c0.649,0.077,1.356,0.01,2.122-0.2
		c0.766-0.211,1.3-0.813,1.606-1.807c0.305-1.109,0.421-2.151,0.344-3.127c-0.077-0.975-0.307-1.834-0.688-2.58
		s-0.898-1.367-1.548-1.864c-0.65-0.496-1.396-0.841-2.236-1.033c-1.721-0.344-3.309-0.076-4.761,0.804
		c-1.454,0.88-2.706,2.103-3.756,3.669c-1.052,1.569-1.875,3.347-2.468,5.335c-0.404,1.358-0.66,2.688-0.788,3.993
		c-0.729,1.177-1.444,2.229-2.137,3.146c-0.707,0.938-1.385,1.684-2.035,2.237c-0.649,0.555-1.204,0.831-1.663,0.831
		c-0.229-0.037-0.402-0.152-0.517-0.344c-0.115-0.191-0.201-0.41-0.258-0.66c-0.057-0.248-0.087-0.496-0.087-0.744
		c0-0.249,0-0.469,0-0.66c0.115-1.032,0.354-2.16,0.717-3.384s0.794-2.418,1.292-3.585c0.495-1.166,1.003-2.256,1.52-3.27
		c0.516-1.012,0.946-1.863,1.289-2.552c0.459-0.841,0.459-1.596,0-2.265c-0.457-0.669-1.089-1.176-1.891-1.521
		c-0.805-0.344-1.646-0.468-2.524-0.373c-0.88,0.096-1.491,0.469-1.834,1.119c-0.46,0.802-0.929,1.875-1.406,3.212
		s-0.926,2.762-1.349,4.272c-0.047,0.168-0.083,0.339-0.128,0.507c-0.514,0.881-1.031,1.762-1.592,2.676
		c-0.726,1.186-1.453,2.285-2.18,3.298c-0.726,1.014-1.414,1.884-2.063,2.61c-0.65,0.727-1.225,1.203-1.721,1.434
		c-0.268,0.152-0.44-0.02-0.516-0.517c-0.077-0.803,0.114-2.073,0.572-3.813c0.459-1.74,1.053-3.709,1.779-5.908
		c0.726-2.198,1.548-4.502,2.466-6.91c0.916-2.41,1.814-4.675,2.695-6.797c0.88-2.122,1.692-3.995,2.438-5.621
		c0.745-1.624,1.308-2.743,1.692-3.354c0.343-0.536,0.401-1.042,0.172-1.52c-0.229-0.478-0.613-0.889-1.147-1.233
		c-0.536-0.344-1.157-0.611-1.864-0.803c-0.707-0.191-1.347-0.287-1.922-0.287c-0.268,0-0.544,0.058-0.83,0.172
		c-0.287,0.115-0.526,0.307-0.717,0.574c-0.269,0.382-0.66,1.175-1.177,2.38c-0.516,1.205-1.089,2.667-1.72,4.388
		c-0.632,1.721-1.3,3.642-2.007,5.764c-0.708,2.122-1.369,4.273-1.978,6.453c-0.384-0.879-0.938-1.52-1.664-1.921
		c-0.727-0.402-1.549-0.603-2.467-0.603c-0.611,0-1.233,0.106-1.863,0.315c-0.631,0.211-1.252,0.545-1.864,1.004
		c-0.727,0.573-1.444,1.462-2.151,2.667c-0.708,1.205-1.338,2.553-1.893,4.044c-0.554,1.491-1.003,3.04-1.348,4.646
		c-0.093,0.436-0.171,0.862-0.24,1.281c-0.368,0.564-0.73,1.104-1.08,1.586c-0.995,1.377-1.864,2.409-2.61,3.098
		c-0.746,0.688-1.271,1.032-1.576,1.032c-0.193,0-0.317-0.086-0.374-0.259c-0.057-0.171-0.085-0.314-0.085-0.43
		c0-0.688,0.152-1.624,0.459-2.811c0.305-1.184,0.649-2.408,1.032-3.67c0.382-1.262,0.764-2.475,1.147-3.643
		c0.382-1.165,0.649-2.093,0.803-2.781c0.267-1.146,0.286-2.15,0.057-3.011s-0.601-1.529-1.118-2.007
		c-0.516-0.478-1.138-0.754-1.863-0.832c-0.728-0.076-1.455,0.115-2.18,0.574c-0.574,0.383-1.138,0.842-1.692,1.376
		c-0.554,0.537-1.091,1.09-1.606,1.664c-0.516,0.573-0.994,1.138-1.434,1.691c-0.439,0.555-0.793,1.043-1.061,1.463
		c0.267-0.727,0.592-1.492,0.975-2.295c0.382-0.803,0.726-1.605,1.032-2.408c0.269-0.573,0.145-1.051-0.372-1.434
		c-0.516-0.381-1.147-0.649-1.893-0.803c-0.745-0.152-1.482-0.172-2.208-0.058c-0.727,0.115-1.167,0.383-1.319,0.803
		c-0.574,1.683-1.147,3.47-1.72,5.362c-0.534,1.762-1.013,3.479-1.448,5.156c-0.407,0.731-0.828,1.461-1.276,2.186
		c-0.746,1.204-1.473,2.275-2.18,3.211c-0.708,0.938-1.386,1.684-2.036,2.237c-0.65,0.555-1.205,0.831-1.663,0.831
		c-0.229-0.037-0.401-0.152-0.516-0.344s-0.201-0.41-0.258-0.66c-0.057-0.248-0.086-0.496-0.086-0.744c0-0.249,0-0.469,0-0.66
		c0.115-1.032,0.353-2.16,0.717-3.384c0.363-1.224,0.793-2.418,1.291-3.585c0.496-1.166,1.003-2.256,1.52-3.27
		c0.516-1.012,0.946-1.863,1.29-2.552c0.459-0.841,0.459-1.596,0-2.265c-0.458-0.669-1.089-1.176-1.892-1.521
		c-0.803-0.344-1.645-0.468-2.524-0.373c-0.88,0.096-1.491,0.469-1.835,1.119c-0.459,0.802-0.928,1.875-1.406,3.212
		c-0.477,1.338-0.926,2.762-1.348,4.272c-0.191,0.685-0.36,1.375-0.52,2.067c-1.072,1.668-2.15,3.166-3.236,4.471
		c-1.319,1.587-2.609,2.839-3.871,3.756c-1.262,0.918-2.39,1.377-3.384,1.377c-0.574,0-1.081-0.123-1.52-0.373
		c-0.44-0.248-0.803-0.573-1.09-0.975c-0.286-0.401-0.497-0.86-0.63-1.377c-0.135-0.516-0.163-1.021-0.086-1.52
		c1.07,0,2.245-0.162,3.527-0.486c1.281-0.325,2.495-0.89,3.642-1.693c1.147-0.803,2.112-1.873,2.896-3.211s1.214-3.021,1.291-5.047
		c0-1.07-0.182-1.998-0.545-2.782c-0.364-0.783-0.813-1.425-1.348-1.921c-0.536-0.497-1.157-0.869-1.864-1.119
		c-0.708-0.248-1.405-0.373-2.093-0.373c-1.721,0-3.241,0.507-4.56,1.52c-1.319,1.013-2.437,2.275-3.355,3.786
		c-0.917,1.511-1.615,3.175-2.093,4.989c-0.478,1.816-0.717,3.527-0.717,5.134c0,0.177,0.011,0.347,0.019,0.521
		c-0.928,1.25-1.74,2.212-2.426,2.863c-0.727,0.688-1.243,1.032-1.549,1.032c-0.229,0-0.373-0.086-0.43-0.259
		c-0.057-0.171-0.086-0.314-0.086-0.43c0-0.879,0.191-2.025,0.574-3.441c0.382-1.414,0.84-2.924,1.376-4.531
		c0.115-0.344,0.21-0.639,0.287-0.889c0.076-0.248,0.162-0.486,0.258-0.717c0.095-0.229,0.191-0.467,0.287-0.717
		c0.095-0.248,0.201-0.563,0.315-0.946c0.573-1.644,0.783-3.02,0.631-4.129c-0.153-1.108-0.507-1.95-1.061-2.524
		c-0.555-0.573-1.233-0.889-2.036-0.946c-0.803-0.058-1.568,0.143-2.294,0.602c-0.65,0.421-1.3,0.946-1.95,1.578
		c-0.651,0.631-1.243,1.271-1.778,1.92c0.038-0.764-0.086-1.462-0.373-2.092c-0.287-0.632-0.669-1.119-1.147-1.463
		c-0.478-0.344-1.042-0.536-1.692-0.574c-0.65-0.038-1.3,0.135-1.95,0.517c-0.574,0.382-1.128,0.851-1.664,1.405
		c-0.536,0.555-1.052,1.117-1.548,1.691c-0.498,0.574-0.956,1.147-1.376,1.721c-0.421,0.574-0.765,1.09-1.032,1.549
		c0.267-0.764,0.583-1.549,0.946-2.352s0.697-1.606,1.004-2.409c0.267-0.573,0.143-1.061-0.373-1.462
		C9.779,34.23,9.138,33.953,8.374,33.8c-0.765-0.152-1.529-0.152-2.294,0c-0.765,0.153-1.224,0.498-1.376,1.032
		c-0.573,1.683-1.147,3.461-1.72,5.335c-0.574,1.873-1.08,3.698-1.52,5.477c-0.439,1.777-0.793,3.441-1.061,4.99
		C0.135,52.181,0,53.491,0,54.562c0,0.307,0.039,0.631,0.115,0.975c0.077,0.345,0.201,0.67,0.374,0.976
		c0.171,0.307,0.382,0.573,0.63,0.803c0.25,0.229,0.545,0.364,0.889,0.401c0.955,0.152,1.692-0.057,2.208-0.631
		c0.516-0.573,0.869-1.223,1.061-1.949c0.152-0.727,0.382-1.568,0.688-2.523c0.306-0.956,0.64-1.94,1.004-2.954
		c0.363-1.013,0.755-1.997,1.176-2.954c0.42-0.955,0.803-1.815,1.147-2.58c0.611-1.224,1.205-2.045,1.778-2.467
		c0.573-0.42,0.955-0.535,1.147-0.344c0.305,0.191,0.353,0.727,0.143,1.605c-0.21,0.88-0.469,1.836-0.774,2.868
		c-0.421,1.453-0.813,2.888-1.175,4.302c-0.364,1.414-0.641,2.695-0.832,3.842c-0.153,1.186,0.086,2.084,0.717,2.695
		c0.63,0.612,1.357,0.976,2.179,1.09c0.822,0.115,1.568,0.01,2.237-0.314c0.669-0.325,0.984-0.813,0.947-1.463
		c-0.039-0.574,0.019-1.377,0.171-2.409s0.354-2.122,0.602-3.269c0.249-1.147,0.545-2.266,0.889-3.355s0.689-2.017,1.033-2.781
		c0.382-0.765,0.774-1.406,1.176-1.922c0.401-0.516,0.746-0.813,1.032-0.889c0.287-0.076,0.478,0.076,0.573,0.459
		c0.095,0.383,0.029,1.09-0.2,2.121c-0.307,1.454-0.641,2.926-1.004,4.416c-0.364,1.492-0.545,2.85-0.545,4.072
		c0,0.803,0.086,1.549,0.258,2.237c0.172,0.688,0.449,1.281,0.831,1.778c0.382,0.497,0.889,0.859,1.521,1.09
		c0.631,0.229,1.424,0.305,2.38,0.229c0.994-0.152,1.998-0.688,3.011-1.605c0.929-0.842,1.824-1.869,2.689-3.064
		c0.328,0.852,0.735,1.63,1.267,2.29c0.631,0.784,1.368,1.396,2.208,1.835c0.841,0.44,1.778,0.66,2.811,0.66
		c1.299-0.039,2.589-0.439,3.871-1.205c1.281-0.764,2.524-1.749,3.728-2.953c1.205-1.205,2.341-2.543,3.413-4.015
		c0.095-0.13,0.179-0.261,0.272-0.392c-0.095,0.854-0.158,1.675-0.158,2.428c0,0.879,0.086,1.688,0.258,2.427
		c0.172,0.738,0.458,1.38,0.86,1.927c0.401,0.547,0.928,0.973,1.577,1.273c0.65,0.302,1.453,0.452,2.409,0.452
		c1.147,0,2.274-0.424,3.384-1.272c1.108-0.849,2.151-1.929,3.126-3.24c0.18-0.242,0.346-0.516,0.521-0.768
		c-0.096,0.791-0.15,1.508-0.15,2.126c0,0.573,0.163,1.214,0.487,1.921c0.326,0.709,0.832,1.1,1.52,1.176
		c0.957,0.152,1.682-0.057,2.18-0.631c0.496-0.573,0.822-1.204,0.975-1.893c0.152-0.726,0.392-1.566,0.717-2.523
		c0.324-0.955,0.668-1.939,1.033-2.953c0.362-1.014,0.754-2.008,1.175-2.982c0.42-0.976,0.803-1.845,1.147-2.609
		s0.736-1.396,1.176-1.893c0.438-0.497,0.832-0.793,1.175-0.89c0.345-0.095,0.583,0.058,0.717,0.459
		c0.134,0.401,0.086,1.118-0.143,2.15c-0.306,1.454-0.641,2.917-1.003,4.388c-0.364,1.473-0.545,2.82-0.545,4.043
		c0,0.803,0.086,1.549,0.258,2.237c0.172,0.688,0.449,1.281,0.833,1.778c0.382,0.497,0.889,0.859,1.52,1.09
		c0.631,0.229,1.405,0.305,2.323,0.229c0.994-0.152,1.987-0.688,2.982-1.605c0.993-0.918,1.968-2.045,2.925-3.385
		c0.053-0.074,0.103-0.156,0.155-0.231c0.199,1.524,0.717,2.725,1.565,3.587c1.11,1.129,2.486,1.692,4.13,1.692
		c0.61-0.038,1.175-0.181,1.692-0.431c0.516-0.248,0.984-0.553,1.404-0.917c0.421-0.362,0.804-0.765,1.148-1.204
		s0.63-0.869,0.86-1.291c0.267,1.146,0.774,2.064,1.52,2.753c0.745,0.688,1.596,1.032,2.551,1.032c0.918,0,1.865-0.439,2.84-1.318
		s1.93-1.998,2.868-3.355c0.491-0.711,0.973-1.462,1.448-2.242c-0.013,0.297-0.045,0.612-0.045,0.895
		c0,0.879,0.087,1.688,0.258,2.427c0.173,0.738,0.459,1.38,0.861,1.927s0.928,0.973,1.576,1.273
		c0.649,0.302,1.454,0.452,2.409,0.452c1.147,0,2.274-0.424,3.384-1.272c1.108-0.849,2.15-1.929,3.125-3.24
		c0.315-0.422,0.609-0.885,0.91-1.338c0.035,0.161,0.053,0.329,0.094,0.488c0.268,1.014,0.688,1.912,1.264,2.695
		c0.572,0.784,1.289,1.425,2.148,1.922c0.861,0.497,1.903,0.745,3.126,0.745c1.377,0,2.677-0.248,3.899-0.745
		c1.225-0.497,2.342-1.138,3.355-1.922c0.449-0.347,0.865-0.719,1.27-1.104c-0.049,0.759-0.079,1.506-0.079,2.231
		c0,4.397,1.081,7.694,3.242,9.892c2.16,2.199,4.842,3.297,8.047,3.297c1.19-0.072,2.291-0.352,3.297-0.838
		c1.007-0.484,1.917-1.079,2.739-1.787c0.818-0.709,1.564-1.49,2.234-2.348c0.67-0.855,1.229-1.695,1.678-2.516
		c0.447,2.235,1.396,4.023,2.85,5.365c1.452,1.342,3.146,2.012,5.084,2.012c1.789,0,3.595-0.855,5.421-2.57
		c1.826-1.713,3.613-3.893,5.366-6.539c0.589-0.89,1.164-1.817,1.732-2.762c0,0.008-0.002,0.016-0.002,0.023
		c0,3.429,0.878,6.242,2.629,8.438c1.75,2.198,4.189,3.373,7.319,3.521c2.684,0.148,5.048-0.446,7.097-1.787
		c2.05-1.342,3.782-2.943,5.198-4.807c1.413-1.861,2.515-3.744,3.296-5.645c0.782-1.9,1.286-3.37,1.51-4.414
		c0.073-0.448-0.055-0.839-0.391-1.174C198.671,51.261,198.261,51.021,197.777,50.87z M39.631,39.019
		c0.115-0.037,0.238-0.066,0.373-0.086c0.134-0.019,0.267,0.02,0.402,0.115c0.133,0.096,0.248,0.249,0.344,0.459
		c0.095,0.21,0.123,0.545,0.085,1.004c-0.077,0.879-0.307,1.748-0.688,2.609c-0.383,0.859-0.852,1.625-1.405,2.293
		c-0.555,0.67-1.167,1.234-1.835,1.692c-0.669,0.459-1.329,0.728-1.979,0.804c0.191-0.994,0.478-1.979,0.861-2.954
		c0.381-0.976,0.803-1.873,1.261-2.696c0.459-0.82,0.918-1.52,1.376-2.092C38.885,39.593,39.287,39.21,39.631,39.019z
		 M92.625,42.632c-0.154,0.918-0.373,1.902-0.66,2.954c-0.286,1.052-0.622,2.113-1.003,3.183c-0.384,1.071-0.794,2.047-1.234,2.926
		c-0.439,0.879-0.909,1.597-1.404,2.15c-0.498,0.555-0.995,0.832-1.491,0.832c-0.384,0-0.632-0.221-0.747-0.66
		s-0.164-0.955-0.143-1.549c0.018-0.592,0.085-1.193,0.201-1.807c0.114-0.61,0.209-1.09,0.287-1.434
		c0.267-1.146,0.63-2.369,1.09-3.67c0.459-1.3,0.946-2.485,1.462-3.557c0.517-1.069,1.051-1.959,1.605-2.666
		c0.554-0.707,1.061-1.062,1.52-1.062c0.152,0,0.277,0.096,0.373,0.286c0.095,0.192,0.172,0.402,0.229,0.631
		c0.057,0.23,0.095,0.469,0.116,0.717c0.018,0.25,0.028,0.431,0.028,0.545C92.854,40.989,92.777,41.714,92.625,42.632z
		 M153.574,39.917c-0.299,1.788-0.728,3.707-1.286,5.756c-0.559,2.051-1.212,4.117-1.955,6.203c-0.746,2.086-1.548,3.986-2.403,5.7
		c-0.857,1.716-1.771,3.111-2.738,4.19c-0.969,1.082-1.939,1.621-2.906,1.621c-0.745,0-1.229-0.428-1.452-1.285
		c-0.224-0.855-0.319-1.861-0.28-3.018c0.036-1.154,0.169-2.328,0.392-3.521c0.224-1.19,0.408-2.123,0.559-2.793
		c0.521-2.235,1.229-4.62,2.123-7.154c0.896-2.531,1.844-4.842,2.852-6.929c1.005-2.086,2.047-3.817,3.128-5.197
		c1.08-1.378,2.067-2.068,2.963-2.068c0.297,0,0.539,0.187,0.726,0.559c0.185,0.374,0.335,0.783,0.447,1.23
		c0.111,0.447,0.187,0.913,0.225,1.397c0.037,0.486,0.056,0.838,0.056,1.061C154.021,36.714,153.871,38.128,153.574,39.917z"/>
</g>
</svg>
